<svg width="24" height="24" viewBox="0 0 24 24" fill="none" xmlns="http://www.w3.org/2000/svg">
<path d="M8.21045 12L8.21045 8C8.21045 5.79086 10.0013 4 12.2104 4V4C14.4196 4 16.2104 5.79086 16.2104 8L16.2104 12" stroke="white" stroke-width="2" stroke-linecap="round"/>
<path d="M3.85219 12.6678C3.99726 10.9269 4.0698 10.0565 4.64388 9.52824C5.21797 9 6.09144 9 7.83837 9H16.4773C18.2242 9 19.0977 9 19.6718 9.52824C20.2459 10.0565 20.3184 10.9269 20.4635 12.6678L20.9773 18.8339C21.0618 19.8474 21.104 20.3542 20.8069 20.6771C20.5098 21 20.0013 21 18.9842 21H5.33144C4.31438 21 3.80586 21 3.50875 20.6771C3.21165 20.3542 3.25388 19.8474 3.33834 18.8339L3.85219 12.6678Z" stroke="white" stroke-width="2"/>
</svg>
