<svg width="201" height="152" viewBox="0 0 201 152" fill="none" xmlns="http://www.w3.org/2000/svg">
<path fill-rule="evenodd" clip-rule="evenodd" d="M88.8609 -99.2381C114.89 -55.0898 188.679 -46.5191 198.987 3.32975C209.113 52.3036 150.43 85.4541 136.804 132.63C117.983 197.79 152.744 283.905 104.547 330.3C58.0821 375.027 -21.8985 362.039 -86.1432 347.24C-145.968 333.46 -190.24 286.528 -241.08 250.685C-294.802 212.811 -360.442 188.3 -392.979 130.922C-427.689 69.713 -447.846 -7.68652 -423.968 -71.8292C-400.519 -134.819 -320.636 -149.158 -271.893 -194.351C-225.547 -237.322 -206.737 -314.852 -145.133 -330.355C-83.4074 -345.888 -10.1609 -318.243 36.6593 -271.999C80.5054 -228.692 57.5442 -152.355 88.8609 -99.2381Z" fill="#222326"/>
</svg>
