<svg width="32" height="32" viewBox="0 0 32 32" fill="none" xmlns="http://www.w3.org/2000/svg">
<path d="M10.9473 16L10.9473 10.6667C10.9473 7.72115 13.3351 5.33334 16.2806 5.33334V5.33334C19.2261 5.33334 21.6139 7.72115 21.6139 10.6667L21.6139 16" stroke="white" stroke-width="2" stroke-linecap="round"/>
<path d="M5.23825 15.6678C5.38333 13.9269 5.45587 13.0565 6.02995 12.5282C6.60404 12 7.4775 12 9.22444 12H23.1967C24.9436 12 25.8171 12 26.3912 12.5282C26.9653 13.0565 27.0378 13.9269 27.1829 15.6678L28.0301 25.8339C28.1145 26.8474 28.1568 27.3542 27.8597 27.6771C27.5626 28 27.054 28 26.037 28H6.38417C5.36712 28 4.85859 28 4.56149 27.6771C4.26439 27.3542 4.30662 26.8474 4.39108 25.8339L5.23825 15.6678Z" stroke="white" stroke-width="2"/>
</svg>
