<svg width="32" height="32" viewBox="0 0 32 32" fill="none" xmlns="http://www.w3.org/2000/svg">
<rect width="32" height="32" rx="5" fill="#DC8164"/>
<path d="M13.6581 23.7806L13.9743 24.7293H13.9743L13.6581 23.7806ZM18.6581 22.114L18.9743 23.0627L18.9743 23.0626L18.6581 22.114ZM23.7071 11.2929L24.4142 12L23.7071 11.2929ZM19.2929 15.7071L18.5858 15L19.2929 15.7071ZM9 9H23V7H9V9ZM9 10.5858V9H7V10.5858H9ZM13.4142 15L9 10.5858L7.58579 12L12 16.4142L13.4142 15ZM12 16.4142V23.3063H14V16.4142H12ZM12 23.3063C12 24.3301 13.003 25.0531 13.9743 24.7293L13.3419 22.832C13.6656 22.724 14 22.965 14 23.3063H12ZM13.9743 24.7293L18.9743 23.0627L18.3419 21.1653L13.3419 22.832L13.9743 24.7293ZM18.9743 23.0626C19.5868 22.8585 20 22.2853 20 21.6396H18C18 21.4244 18.1377 21.2333 18.3419 21.1653L18.9743 23.0626ZM20 21.6396V16.4142H18V21.6396H20ZM23 10.5858L18.5858 15L20 16.4142L24.4142 12L23 10.5858ZM23 9V10.5858H25V9H23ZM24.4142 12C24.7893 11.6249 25 11.1162 25 10.5858H23L24.4142 12ZM20 16.4142V16.4142L18.5858 15C18.2107 15.3751 18 15.8838 18 16.4142H20ZM12 16.4142H14C14 15.8838 13.7893 15.3751 13.4142 15L12 16.4142ZM7 10.5858C7 11.1162 7.21071 11.6249 7.58579 12L9 10.5858V10.5858H7ZM23 9H25C25 7.89543 24.1046 7 23 7V9ZM9 7C7.89543 7 7 7.89543 7 9H9V9V7Z" fill="white"/>
</svg>
