<svg width="172" height="25" viewBox="0 0 172 25" fill="none" xmlns="http://www.w3.org/2000/svg">
<path d="M59.2593 16.5649C59.3939 16.5638 59.5269 16.5922 59.6501 16.6482C59.7686 16.7028 59.877 16.7787 59.9703 16.8719C60.0635 16.9662 60.1381 17.0781 60.19 17.2017C60.244 17.3316 60.2714 17.4716 60.2704 17.6129C60.2696 17.7534 60.2411 17.8923 60.1869 18.0211C60.1328 18.1499 60.0539 18.2661 59.9552 18.3625C58.6026 19.5112 56.9042 20.1336 55.1545 20.122C54.1513 20.123 53.1576 19.9191 52.2306 19.5222C51.3035 19.1253 50.4611 18.5432 49.7517 17.8091C49.0424 17.075 48.4798 16.2034 48.0962 15.2439C47.7126 14.2846 47.5158 13.2564 47.5166 12.2182C47.5192 10.123 48.3249 8.11445 49.7567 6.63309C51.1886 5.15171 53.1298 4.31849 55.1545 4.3162C56.9467 4.31038 58.6823 4.96484 60.0509 6.16243C60.1418 6.25666 60.2127 6.36957 60.2589 6.49392C60.3052 6.61825 60.3256 6.75123 60.3191 6.88428C60.3202 7.02644 60.2941 7.16742 60.242 7.29899C60.1922 7.42298 60.1192 7.53559 60.0273 7.63041C59.9347 7.72674 59.8241 7.80234 59.702 7.85251C59.5196 7.93133 59.3188 7.95279 59.1246 7.91422C58.9305 7.87565 58.7517 7.77874 58.6105 7.63561C58.1301 7.2421 57.5893 6.93475 57.0108 6.72637C56.4136 6.51349 55.786 6.40671 55.1545 6.41056C54.4175 6.41012 53.6875 6.56003 53.0064 6.85176C52.3255 7.14348 51.7067 7.57127 51.1857 8.11069C50.6645 8.65009 50.2513 9.29051 49.9696 9.99533C49.6879 10.7001 49.5432 11.4555 49.5439 12.2182C49.544 13.3131 49.8432 14.3858 50.4067 15.3123C50.9703 16.239 51.7754 16.9821 52.7292 17.456C53.6831 17.9298 54.7468 18.1151 55.798 17.9906C56.8493 17.8662 57.8451 17.4369 58.6708 16.7523C58.845 16.6314 59.0496 16.5663 59.2593 16.5649Z" fill="white"/>
<path d="M64.2072 10.0857V10.2818C64.6745 9.89335 65.2002 9.58678 65.7633 9.37431C66.3387 9.16067 66.9462 9.05376 67.5575 9.0585C67.8591 9.05956 68.1603 9.07926 68.4596 9.1175C68.7629 9.1516 69.0612 9.22266 69.3483 9.32919C69.5978 9.4193 69.8262 9.56232 70.019 9.7491C70.1083 9.83885 70.1784 9.94701 70.2246 10.0666C70.2708 10.1862 70.2922 10.3145 70.2873 10.4432C70.2879 10.5824 70.2598 10.7202 70.2052 10.8475C70.1529 10.9701 70.0804 11.0823 69.9905 11.1789C69.901 11.2741 69.7938 11.3496 69.6753 11.401C69.5514 11.4537 69.4185 11.4802 69.2847 11.4791C69.1388 11.4727 68.9956 11.4361 68.8637 11.3715C68.447 11.2033 68.0031 11.1191 67.5558 11.1234C67.1065 11.1208 66.6613 11.2135 66.2479 11.3958C65.8511 11.5702 65.4902 11.8217 65.1848 12.1367C64.8794 12.4526 64.6363 12.8268 64.4688 13.2386C64.2915 13.666 64.2019 14.1269 64.2055 14.592V19.1035C64.2051 19.3759 64.1005 19.6371 63.9144 19.83C63.7284 20.0227 63.4762 20.1316 63.2129 20.1325C63.0807 20.1352 62.9494 20.1097 62.8271 20.0578C62.7048 20.0058 62.5941 19.9286 62.5019 19.8306C62.4078 19.7364 62.3333 19.6234 62.283 19.4984C62.2329 19.3733 62.208 19.2388 62.2101 19.1035V10.0857C62.2416 9.83494 62.3603 9.6046 62.5438 9.4377C62.7274 9.27079 62.9634 9.17874 63.2079 9.17874C63.4522 9.17874 63.6882 9.27079 63.8718 9.4377C64.0555 9.6046 64.1741 9.83494 64.2055 10.0857H64.2072Z" fill="white"/>
<path d="M75.5147 19.0933L72.0791 10.5493C72.0164 10.4034 71.9838 10.2456 71.9834 10.086C71.9829 9.95022 72.0085 9.81571 72.0589 9.69036C72.1087 9.56763 72.1798 9.45533 72.2684 9.35893C72.358 9.26359 72.4653 9.18803 72.5838 9.13684C72.7361 9.0736 72.9009 9.04911 73.0643 9.0654C73.2276 9.08171 73.3849 9.13834 73.5227 9.23054C73.7005 9.35438 73.8368 9.53192 73.9134 9.73895L76.5963 16.3673L79.2793 9.71986C79.3491 9.53289 79.4647 9.36789 79.6146 9.24094C79.7924 9.10635 80.0104 9.04119 80.2301 9.05702C80.3639 9.05586 80.4968 9.08241 80.6207 9.13509C80.7395 9.18587 80.8468 9.26148 80.9359 9.3572C81.0258 9.45383 81.0983 9.566 81.1506 9.68863C81.2042 9.81312 81.2316 9.94796 81.2311 10.0842C81.2282 10.2445 81.1927 10.4023 81.1271 10.5475L75.6373 24.1705C75.5577 24.37 75.4259 24.5425 75.2566 24.6686C75.0667 24.8099 74.8342 24.8772 74.601 24.858C74.3676 24.839 74.1485 24.7349 73.9822 24.5644C73.8893 24.467 73.8165 24.3511 73.768 24.2237C73.7197 24.0964 73.6966 23.9602 73.7005 23.8234C73.7003 23.6666 73.733 23.5115 73.7961 23.3689L75.5147 19.0933Z" fill="white"/>
<path d="M88.6249 20.1223C87.4027 20.1446 86.2132 19.7138 85.2713 18.9077V23.8373C85.275 23.9742 85.2511 24.1106 85.2008 24.2372C85.1506 24.364 85.0751 24.4784 84.9795 24.5732C84.8858 24.6683 84.7746 24.7431 84.6525 24.7932C84.5304 24.8433 84.3999 24.8676 84.2685 24.8646C84.1371 24.8687 84.0062 24.8448 83.884 24.7948C83.7617 24.7446 83.6507 24.669 83.5578 24.5729C83.4648 24.4766 83.3918 24.3617 83.3434 24.2352C83.2948 24.1087 83.2718 23.9734 83.2758 23.8373V14.5905C83.2879 13.3161 83.7234 12.0848 84.509 11.1033C85.2946 10.1218 86.3825 9.4498 87.5903 9.20012C88.7979 8.95046 90.052 9.13832 91.1417 9.73217C92.2314 10.326 93.0905 11.2897 93.5749 12.4615C93.8445 13.1365 93.9819 13.8602 93.9789 14.5905C93.9926 15.319 93.8605 16.0424 93.5909 16.7156C93.3214 17.3886 92.9204 17.9966 92.4127 18.5017C91.9144 19.0205 91.3225 19.4332 90.6706 19.7162C90.0214 19.9904 89.326 20.1284 88.6249 20.1223ZM85.2713 14.5905C85.2688 15.0521 85.3578 15.509 85.5328 15.9335C85.7009 16.3439 85.942 16.7176 86.2438 17.0355C86.548 17.3511 86.9077 17.6038 87.3036 17.7799C87.7187 17.9626 88.1653 18.0569 88.6165 18.0569C89.0677 18.0569 89.5143 17.9626 89.9295 17.7799C90.3269 17.6028 90.6878 17.3482 90.9926 17.0302C91.296 16.7124 91.5394 16.3387 91.7102 15.9284C91.8828 15.5046 91.9717 15.0495 91.9717 14.5896C91.9717 14.1299 91.8828 13.6747 91.7102 13.251C91.5394 12.8406 91.296 12.4669 90.9926 12.1491C90.6878 11.8311 90.3269 11.5766 89.9295 11.3995C89.5143 11.2167 89.0677 11.1225 88.6165 11.1225C88.1653 11.1225 87.7187 11.2167 87.3036 11.3995C86.9077 11.5756 86.548 11.8283 86.2438 12.1439C85.942 12.4617 85.7009 12.8355 85.5328 13.2458C85.3589 13.6711 85.271 14.1287 85.2746 14.5905H85.2713Z" fill="white"/>
<path d="M97.0194 9.0568H97.4687V5.34349C97.4669 5.20811 97.4919 5.07378 97.542 4.94875C97.5922 4.82372 97.6665 4.71063 97.7605 4.61645C97.9488 4.42464 98.2023 4.31714 98.4665 4.31714C98.7307 4.31714 98.9843 4.42464 99.1724 4.61645C99.2664 4.71063 99.3407 4.82372 99.391 4.94875C99.4411 5.07378 99.466 5.20811 99.4642 5.34349V9.0568H100.656C100.786 9.05401 100.916 9.07926 101.036 9.13094C101.156 9.18263 101.264 9.2596 101.354 9.35698C101.447 9.45179 101.52 9.56512 101.569 9.69008C101.619 9.81505 101.643 9.94907 101.641 10.084C101.643 10.2203 101.619 10.3558 101.57 10.4822C101.521 10.6087 101.447 10.7235 101.354 10.8197C101.264 10.9171 101.156 10.9941 101.036 11.0458C100.916 11.0975 100.786 11.1227 100.656 11.1199H99.4642V16.0895C99.4642 17.4001 100.1 18.0555 101.372 18.0555C101.502 18.0531 101.631 18.0785 101.751 18.1302C101.871 18.1818 101.98 18.2587 102.07 18.3557C102.256 18.5505 102.36 18.8132 102.36 19.0871C102.36 19.3608 102.256 19.6236 102.07 19.8185C101.98 19.916 101.872 19.9933 101.752 20.0452C101.632 20.0972 101.503 20.1228 101.372 20.1203C98.77 20.1203 97.4687 18.7767 97.4687 16.0895V11.1217H97.0194C96.8905 11.1234 96.7626 11.0976 96.6438 11.046C96.5249 10.9943 96.4176 10.9179 96.3285 10.8215C96.2338 10.726 96.159 10.6115 96.1089 10.4849C96.0587 10.3584 96.0342 10.2225 96.0368 10.0857C96.0347 9.95036 96.0595 9.81596 96.1098 9.6909C96.1599 9.56584 96.2344 9.45278 96.3285 9.35871C96.4175 9.26198 96.5248 9.18523 96.6435 9.13328C96.7625 9.08135 96.8904 9.05529 97.0194 9.0568Z" fill="white"/>
<path d="M114.436 14.5903C114.45 15.3189 114.318 16.0423 114.048 16.7154C113.778 17.3884 113.377 17.9965 112.87 18.5015C111.867 19.5391 110.507 20.1218 109.089 20.1218C107.672 20.1218 106.312 19.5391 105.309 18.5015C104.306 17.464 103.743 16.0568 103.743 14.5895C103.743 13.1223 104.306 11.7151 105.309 10.6776C106.312 9.64074 107.672 9.05835 109.089 9.05835C110.507 9.05835 111.867 9.64074 112.87 10.6776C113.373 11.186 113.773 11.7945 114.044 12.4665C114.305 13.1419 114.438 13.863 114.436 14.5903ZM109.09 11.12C108.637 11.1159 108.188 11.2105 107.772 11.3977C107.376 11.5737 107.017 11.8264 106.712 12.142C106.411 12.4598 106.17 12.8337 106.002 13.2439C105.829 13.6694 105.74 14.1263 105.74 14.5878C105.74 15.0493 105.829 15.5062 106.002 15.9317C106.17 16.342 106.411 16.7157 106.712 17.0336C107.017 17.3492 107.376 17.6019 107.772 17.7779C108.187 17.9607 108.634 18.055 109.085 18.055C109.536 18.055 109.983 17.9607 110.398 17.7779C110.796 17.6009 111.156 17.3464 111.461 17.0283C111.765 16.711 112.008 16.3371 112.177 15.9265C112.351 15.5032 112.441 15.0478 112.441 14.5878C112.441 14.1278 112.351 13.6725 112.177 13.2491C112.008 12.8385 111.765 12.4647 111.461 12.1473C111.156 11.8292 110.796 11.5748 110.398 11.3977C109.986 11.2119 109.54 11.1179 109.09 11.1218V11.12Z" fill="white"/>
<path d="M128.299 16.5649C128.433 16.5638 128.566 16.5922 128.689 16.6482C128.808 16.7028 128.916 16.7787 129.01 16.8719C129.103 16.9662 129.177 17.0781 129.229 17.2017C129.283 17.3316 129.311 17.4716 129.31 17.6129C129.309 17.7534 129.28 17.8923 129.226 18.0211C129.172 18.1499 129.093 18.2661 128.995 18.3625C127.642 19.5112 125.944 20.1336 124.194 20.122C123.191 20.1231 122.197 19.9195 121.27 19.5227C120.343 19.1259 119.501 18.5436 118.791 17.8095C118.082 17.0753 117.519 16.2035 117.136 15.2441C116.753 14.2847 116.556 13.2564 116.558 12.2182C116.559 10.1231 117.365 8.11421 118.796 6.63268C120.228 5.15116 122.169 4.31803 124.194 4.3162C125.986 4.31038 127.722 4.96484 129.09 6.16243C129.181 6.25666 129.252 6.36957 129.298 6.49392C129.345 6.61825 129.365 6.75123 129.358 6.88428C129.36 7.02644 129.333 7.16742 129.281 7.29899C129.232 7.42298 129.159 7.53559 129.067 7.63041C128.974 7.72674 128.863 7.80234 128.741 7.85251C128.559 7.93133 128.358 7.95279 128.164 7.91422C127.97 7.87565 127.791 7.77874 127.65 7.63561C127.169 7.2421 126.629 6.93475 126.05 6.72637C125.453 6.51349 124.825 6.40671 124.194 6.41056C123.457 6.40966 122.726 6.55924 122.045 6.85076C121.363 7.14228 120.744 7.57 120.223 8.10946C119.701 8.6489 119.288 9.28948 119.006 9.99453C118.724 10.6996 118.579 11.4552 118.58 12.2182C118.58 13.3131 118.879 14.3858 119.443 15.3123C120.006 16.239 120.811 16.9821 121.765 17.456C122.719 17.9298 123.783 18.1151 124.834 17.9906C125.885 17.8662 126.881 17.4369 127.707 16.7523C127.882 16.6309 128.088 16.5656 128.299 16.5649Z" fill="white"/>
<path d="M131.195 19.093V5.35386C131.192 5.21771 131.216 5.08235 131.264 4.9557C131.312 4.82907 131.385 4.71371 131.477 4.6164C131.667 4.42394 131.922 4.31616 132.188 4.31616C132.454 4.31616 132.709 4.42394 132.899 4.6164C132.991 4.71371 133.063 4.82907 133.111 4.9557C133.16 5.08235 133.183 5.21771 133.18 5.35386V18.0572H133.636C133.879 18.0897 134.101 18.2124 134.263 18.4024C134.424 18.5924 134.513 18.8367 134.513 19.0896C134.513 19.3424 134.424 19.5868 134.263 19.7768C134.101 19.9667 133.879 20.0894 133.636 20.122H132.178C132.048 20.1243 131.919 20.0986 131.799 20.0466C131.679 19.9947 131.571 19.9176 131.482 19.8201C131.389 19.7253 131.316 19.612 131.266 19.4871C131.217 19.362 131.193 19.228 131.195 19.093Z" fill="white"/>
<path d="M147.149 14.5903C147.163 15.3187 147.032 16.042 146.762 16.715C146.493 17.388 146.092 17.9962 145.585 18.5015C145.088 19.0153 144.5 19.4228 143.851 19.7008C143.201 19.9788 142.506 20.1218 141.805 20.1218C141.103 20.1218 140.408 19.9788 139.759 19.7008C139.111 19.4228 138.521 19.0153 138.024 18.5015C137.528 17.9878 137.134 17.3778 136.865 16.7067C136.597 16.0355 136.458 15.316 136.458 14.5895C136.458 13.863 136.597 13.1436 136.865 12.4724C137.134 11.8012 137.528 11.1913 138.024 10.6776C139.028 9.64074 140.387 9.05835 141.805 9.05835C143.222 9.05835 144.582 9.64074 145.585 10.6776C146.089 11.186 146.488 11.7945 146.759 12.4665C147.021 13.1418 147.154 13.863 147.149 14.5903ZM141.805 11.12C141.351 11.1161 140.903 11.2107 140.488 11.3977C140.092 11.5733 139.732 11.826 139.428 12.142C139.126 12.4598 138.885 12.8337 138.716 13.2439C138.543 13.6691 138.453 14.1261 138.453 14.5878C138.453 15.0495 138.543 15.5064 138.716 15.9317C138.885 16.342 139.126 16.7157 139.428 17.0336C139.732 17.3495 140.092 17.6023 140.488 17.7779C140.902 17.9612 141.349 18.0556 141.799 18.0556C142.25 18.0556 142.698 17.9612 143.111 17.7779C143.51 17.6009 143.871 17.3464 144.177 17.0283C144.479 16.7105 144.723 16.3368 144.893 15.9265C145.066 15.5032 145.156 15.0478 145.156 14.5878C145.156 14.1278 145.066 13.6725 144.893 13.2491C144.723 12.8388 144.479 12.4651 144.177 12.1473C143.871 11.8292 143.51 11.5747 143.111 11.3977C142.699 11.2119 142.253 11.1179 141.805 11.1218V11.12Z" fill="white"/>
<path d="M158.218 20.122C158.086 20.1264 157.956 20.1024 157.834 20.0513C157.712 20.0001 157.603 19.9231 157.512 19.8252C157.329 19.6322 157.227 19.3734 157.225 19.1034C156.81 19.4462 156.338 19.7089 155.831 19.879C155.315 20.0449 154.778 20.1268 154.236 20.122C153.573 20.1257 152.917 19.9856 152.308 19.7108C151.115 19.1808 150.162 18.1961 149.65 16.9605C149.386 16.3313 149.25 15.6517 149.253 14.965V10.0857C149.285 9.83492 149.404 9.60457 149.587 9.43766C149.771 9.27075 150.007 9.17871 150.251 9.17871C150.496 9.17871 150.731 9.27075 150.916 9.43766C151.098 9.60457 151.217 9.83492 151.249 10.0857V14.965C151.246 15.3788 151.327 15.7889 151.483 16.1693C151.785 16.9117 152.357 17.5022 153.074 17.8142C153.44 17.9744 153.835 18.0571 154.232 18.0571C154.631 18.0571 155.026 17.9744 155.392 17.8142C155.748 17.6573 156.072 17.4311 156.346 17.1479C156.619 16.8652 156.838 16.5321 156.993 16.1659C157.148 15.7863 157.228 15.3775 157.225 14.965V10.0857C157.257 9.83492 157.375 9.60457 157.559 9.43766C157.743 9.27075 157.978 9.17871 158.223 9.17871C158.467 9.17871 158.704 9.27075 158.886 9.43766C159.07 9.60457 159.189 9.83492 159.22 10.0857V19.093C159.223 19.2285 159.198 19.3628 159.148 19.4879C159.097 19.6129 159.023 19.7261 158.929 19.8201C158.836 19.9181 158.726 19.9955 158.604 20.0474C158.481 20.0994 158.351 20.1247 158.218 20.122Z" fill="white"/>
<path d="M166.652 9.05677C167.873 9.03921 169.061 9.46949 170.005 10.2714V5.34348C170.001 5.20733 170.024 5.07171 170.071 4.945C170.12 4.81828 170.193 4.70321 170.286 4.60689C170.38 4.51056 170.491 4.43508 170.612 4.38507C170.736 4.33507 170.866 4.31165 170.999 4.31624C171.129 4.31329 171.26 4.33756 171.382 4.38762C171.504 4.43769 171.615 4.51254 171.709 4.60775C171.804 4.70277 171.879 4.81728 171.929 4.94396C171.979 5.07064 172.002 5.20671 172 5.34348V14.5903C172.012 15.3185 171.88 16.0419 171.612 16.7149C171.342 17.3879 170.942 17.9961 170.434 18.5014C169.938 19.0151 169.349 19.4227 168.701 19.7007C168.052 19.9787 167.357 20.1217 166.655 20.1217C165.952 20.1217 165.257 19.9787 164.609 19.7007C163.96 19.4227 163.37 19.0151 162.874 18.5014C162.377 17.9877 161.984 17.3777 161.714 16.7066C161.446 16.0353 161.309 15.3159 161.309 14.5894C161.309 13.8629 161.446 13.1435 161.714 12.4723C161.984 11.8011 162.377 11.1912 162.874 10.6774C163.363 10.1547 163.951 9.74125 164.6 9.46251C165.25 9.18379 165.949 9.04569 166.652 9.05677ZM170.005 14.5885C170.008 14.128 169.918 13.672 169.742 13.249C169.571 12.8387 169.329 12.465 169.026 12.1471C168.72 11.8291 168.359 11.5746 167.962 11.3975C167.546 11.2143 167.1 11.1198 166.649 11.1198C166.198 11.1198 165.752 11.2143 165.337 11.3975C164.537 11.7509 163.901 12.4133 163.566 13.2438C163.392 13.669 163.303 14.126 163.303 14.5877C163.303 15.0494 163.392 15.5063 163.566 15.9316C163.9 16.7611 164.531 17.424 165.329 17.7795C165.744 17.9628 166.19 18.0572 166.641 18.0572C167.092 18.0572 167.538 17.9628 167.953 17.7795C168.351 17.6051 168.712 17.3536 169.018 17.0387C169.321 16.7208 169.563 16.347 169.733 15.9369C169.913 15.5122 170.005 15.0537 170.003 14.5903L170.005 14.5885Z" fill="white"/>
<path d="M25.9337 11.9292C25.9337 16.1077 22.6563 19.4953 18.6133 19.4953C15.9748 19.4953 13.6624 18.0525 12.3741 15.8887C12.0343 17.4408 10.7306 18.6215 9.13768 18.7423C11.2231 21.8348 14.6896 23.8585 18.6133 23.8585C24.9878 23.8585 30.1554 18.5175 30.1554 11.9292C30.1554 5.34089 24.9878 0 18.6133 0C12.2453 0 7.08174 5.33008 7.07129 11.9092C7.59974 11.5972 8.21329 11.4186 8.8677 11.4186C9.80903 11.4186 10.6658 11.7881 11.3064 12.3927C11.2974 12.2394 11.2929 12.0849 11.2929 11.9292C11.2929 7.75063 14.5703 4.36322 18.6133 4.36322C22.6563 4.36322 25.9337 7.75063 25.9337 11.9292Z" fill="url(#paint0_linear_236_5688)"/>
<path fill-rule="evenodd" clip-rule="evenodd" d="M33.2098 24.3226C37.3809 24.2977 40.7548 20.7952 40.7548 16.4783C40.7548 12.1459 37.3566 8.63379 33.1649 8.63379C29.7055 8.63379 26.4283 11.6509 25.575 14.2503C24.7216 16.8496 22.9889 18.2917 21.1288 19.0312C21.1323 19.0419 21.1359 19.0525 21.1395 19.0631C19.2493 19.6709 18.1589 19.622 16.241 19.0312H8.86816V24.3228H33.1608C33.1621 24.3228 33.1635 24.3228 33.1649 24.3228C33.1662 24.3228 33.1676 24.3228 33.1689 24.3228H33.2098V24.3226ZM36.623 16.4783C36.623 18.4522 35.0748 20.0525 33.1649 20.0525C31.2549 20.0525 29.7067 18.4522 29.7067 16.4783C29.7067 14.5044 31.2549 12.9042 33.1649 12.9042C35.0748 12.9042 36.623 14.5044 36.623 16.4783Z" fill="url(#paint1_linear_236_5688)"/>
<path d="M8.9 5.90332C7.13975 5.90332 5.41902 6.44346 3.95543 7.45545C2.49183 8.46743 1.3511 9.90581 0.677476 11.5887C0.00385621 13.2716 -0.172393 15.1234 0.171015 16.9099C0.514424 18.6964 1.36207 20.3374 2.60676 21.6255C3.85145 22.9134 5.43727 23.7906 7.16371 24.146C8.89013 24.5014 10.6796 24.319 12.3059 23.6219C13.9321 22.9249 15.3221 21.7444 16.3001 20.2298C17.2781 18.7152 17.8 16.9347 17.8 15.1131C17.8 13.9037 17.5698 12.7061 17.1225 11.5887C16.6752 10.4713 16.0196 9.45601 15.1932 8.60081C14.3668 7.7456 13.3857 7.06721 12.3059 6.60438C11.2261 6.14154 10.0688 5.90332 8.9 5.90332ZM8.9 18.6789C8.2185 18.6789 7.55229 18.4697 6.98565 18.0778C6.419 17.6861 5.97734 17.1293 5.71654 16.4777C5.45574 15.8262 5.3875 15.1092 5.52045 14.4175C5.65341 13.7258 5.98159 13.0905 6.46349 12.5918C6.94539 12.0931 7.55935 11.7535 8.22778 11.6159C8.89618 11.4784 9.58901 11.549 10.2186 11.8189C10.8483 12.0887 11.3864 12.5458 11.765 13.1321C12.1437 13.7185 12.3458 14.4079 12.3458 15.1131C12.3463 15.5818 12.2576 16.0459 12.0847 16.479C11.9118 16.9122 11.6581 17.3058 11.3381 17.6373C11.018 17.969 10.638 18.2319 10.2196 18.4115C9.80131 18.5909 9.35288 18.6833 8.9 18.6833V18.6789Z" fill="#6763F7"/>
<path d="M32.9968 3.89285C34.0087 3.89285 34.8291 3.04396 34.8291 1.99684C34.8291 0.949699 34.0087 0.10083 32.9968 0.10083C31.9849 0.10083 31.1646 0.949699 31.1646 1.99684C31.1646 3.04396 31.9849 3.89285 32.9968 3.89285Z" fill="#FFAD4D"/>
<defs>
<linearGradient id="paint0_linear_236_5688" x1="14.8858" y1="-3.38846" x2="29.7028" y2="11.487" gradientUnits="userSpaceOnUse">
<stop stop-color="#6763F7"/>
<stop offset="1" stop-color="#4A40C6"/>
</linearGradient>
<linearGradient id="paint1_linear_236_5688" x1="24.6318" y1="14.2039" x2="24.6318" y2="24.3228" gradientUnits="userSpaceOnUse">
<stop stop-color="#6864F9"/>
<stop offset="1" stop-color="#493FC5"/>
</linearGradient>
</defs>
</svg>
